<svg width="978" height="536" viewBox="0 0 978 536" fill="none" xmlns="http://www.w3.org/2000/svg">
<rect width="978" height="536" fill="black"/>
<path d="M192.188 174.182H228.551V210.545H192.188V174.182ZM192.188 210.545H228.551V246.909H192.188V210.545ZM192.188 246.909H228.551V283.273H192.188V246.909ZM192.188 283.273H228.551V319.636H192.188V283.273ZM192.188 319.636H228.551V356H192.188V319.636ZM228.551 174.182H264.915V210.545H228.551V174.182ZM264.915 174.182H301.278V210.545H264.915V174.182ZM264.915 210.545H301.278V246.909H264.915V210.545ZM264.915 246.909H301.278V283.273H264.915V246.909ZM228.551 246.909H264.915V283.273H228.551V246.909ZM337.5 319.636H373.864V356H337.5V319.636ZM337.5 283.273H373.864V319.636H337.5V283.273ZM337.5 246.909H373.864V283.273H337.5V246.909ZM337.5 210.545H373.864V246.909H337.5V210.545ZM373.864 174.182H410.227V210.545H373.864V174.182ZM410.227 210.545H446.591V246.909H410.227V210.545ZM410.227 246.909H446.591V283.273H410.227V246.909ZM410.227 283.273H446.591V319.636H410.227V283.273ZM410.227 319.636H446.591V356H410.227V319.636ZM373.864 246.909H410.227V283.273H373.864V246.909Z" fill="white"/>
<path d="M653.18 174.182H689.543V210.545H653.18V174.182ZM653.18 210.545H689.543V246.909H653.18V210.545ZM653.18 246.909H689.543V283.273H653.18V246.909ZM653.18 283.273H689.543V319.636H653.18V283.273ZM653.18 319.636H689.543V356H653.18V319.636ZM725.836 174.182H762.2V210.545H725.836V174.182ZM725.836 210.545H762.2V246.909H725.836V210.545ZM725.836 246.909H762.2V283.273H725.836V246.909ZM725.836 283.273H762.2V319.636H725.836V283.273ZM725.836 319.636H762.2V356H725.836V319.636ZM762.2 319.636H798.563V356H762.2V319.636Z" fill="white"/>
<path d="M653.262 362.455H664.171V373.364H653.262V362.455ZM664.171 362.455H675.08V373.364H664.171V362.455ZM675.08 362.455H685.989V373.364H675.08V362.455ZM664.171 373.364H675.08V384.273H664.171V373.364ZM664.171 384.273H675.08V395.182H664.171V384.273ZM664.171 395.182H675.08V406.091H664.171V395.182ZM664.171 406.091H675.08V417H664.171V406.091ZM696.855 362.455H707.765V373.364H696.855V362.455ZM696.855 373.364H707.765V384.273H696.855V373.364ZM696.855 384.273H707.765V395.182H696.855V384.273ZM696.855 395.182H707.765V406.091H696.855V395.182ZM696.855 406.091H707.765V417H696.855V406.091ZM707.765 362.455H718.674V373.364H707.765V362.455ZM707.765 406.091H718.674V417H707.765V406.091ZM707.765 384.273H718.674V395.182H707.765V384.273ZM718.674 362.455H729.583V373.364H718.674V362.455ZM718.674 406.091H729.583V417H718.674V406.091ZM751.358 362.455H762.267V373.364H751.358V362.455ZM740.449 362.455H751.358V373.364H740.449V362.455ZM740.449 373.364H751.358V384.273H740.449V373.364ZM740.449 384.273H751.358V395.182H740.449V384.273ZM740.449 395.182H751.358V406.091H740.449V395.182ZM740.449 406.091H751.358V417H740.449V406.091ZM751.358 406.091H762.267V417H751.358V406.091ZM773.145 406.091H784.054V417H773.145V406.091ZM773.145 395.182H784.054V406.091H773.145V395.182ZM773.145 384.273H784.054V395.182H773.145V384.273ZM773.145 373.364H784.054V384.273H773.145V373.364ZM773.145 362.455H784.054V373.364H773.145V362.455ZM784.054 384.273H794.963V395.182H784.054V384.273ZM794.963 362.455H805.872V373.364H794.963V362.455ZM794.963 373.364H805.872V384.273H794.963V373.364ZM794.963 384.273H805.872V395.182H794.963V384.273ZM794.963 395.182H805.872V406.091H794.963V395.182ZM794.963 406.091H805.872V417H794.963V406.091Z" fill="white"/>
<path d="M139 380H565V280H472V106H876V417H839V143H509V243H602V417H102V106H139V380Z" fill="white"/>
</svg>
